<svg width="36" height="36" viewBox="0 0 36 36" fill="none" xmlns="http://www.w3.org/2000/svg">
<rect width="36" height="36" fill="#245D4C"/>
<path d="M6.54688 19.6406C6.17188 18.0938 5.84115 16.7995 5.55469 15.7578C5.26823 14.7109 5.03906 14.0599 4.86719 13.8047L4.08594 13.75C3.9349 13.3542 3.82812 12.8672 3.76562 12.2891C3.85417 12.0026 4.02083 11.7552 4.26562 11.5469C4.51042 11.3333 4.79688 11.1719 5.125 11.0625C5.45312 10.9531 5.78385 10.8984 6.11719 10.8984C6.8776 10.8984 7.44531 11.2474 7.82031 11.9453C7.99219 12.263 8.13802 12.6458 8.25781 13.0938C8.3776 13.5365 8.48958 14.0625 8.59375 14.6719C8.76562 15.6979 8.88542 16.6198 8.95312 17.4375C9.02083 18.25 9.07552 19.1146 9.11719 20.0312L9.14844 20.7344H9.26562C9.39583 20.4479 9.53906 19.8307 9.69531 18.8828C9.85156 17.9349 9.98698 16.9323 10.1016 15.875C10.2161 14.8125 10.2786 14.0234 10.2891 13.5078L9.30469 13.3594C9.23177 13.0833 9.1849 12.8359 9.16406 12.6172C9.14323 12.3984 9.13281 12.1328 9.13281 11.8203C9.24219 11.6849 9.42448 11.5443 9.67969 11.3984C9.9349 11.2526 10.2318 11.1302 10.5703 11.0312C10.9089 10.9323 11.2448 10.8828 11.5781 10.8828C12.026 10.8828 12.4297 10.9583 12.7891 11.1094C13.1536 11.2552 13.4427 11.474 13.6562 11.7656C13.875 12.0573 13.987 12.4141 13.9922 12.8359V14.0391C14.2266 14.9505 14.4297 16.0208 14.6016 17.25C14.7786 18.474 14.9089 19.6328 14.9922 20.7266H15.0781C15.2031 20.4349 15.3438 19.8151 15.5 18.8672C15.6615 17.9141 15.8021 16.9115 15.9219 15.8594C16.0417 14.8021 16.1042 14.0182 16.1094 13.5078L15.1875 13.3594C15.1146 13.0833 15.0677 12.8359 15.0469 12.6172C15.026 12.3984 15.0156 12.1328 15.0156 11.8203C15.1198 11.6849 15.3021 11.5443 15.5625 11.3984C15.8229 11.2526 16.1224 11.1302 16.4609 11.0312C16.8047 10.9323 17.1432 10.8828 17.4766 10.8828C18.1589 10.8828 18.6693 11.0599 19.0078 11.4141C19.3464 11.7682 19.5156 12.3073 19.5156 13.0312C19.5156 13.7188 19.401 14.6042 19.1719 15.6875C18.9427 16.7708 18.6562 17.7891 18.3125 18.7422C18.0156 19.5755 17.724 20.2969 17.4375 20.9062C17.151 21.5104 16.7969 22.1042 16.375 22.6875C16.2031 22.8646 15.9766 22.987 15.6953 23.0547C15.4193 23.1224 15.1328 23.1562 14.8359 23.1562C13.8099 23.1562 13.0521 22.9583 12.5625 22.5625L12.7734 20.9609L12.2656 18.3281C12.1458 17.6354 12.0677 17.0833 12.0312 16.6719L11.9297 16.6641L11.9062 17.6562C11.7344 18.6771 11.5234 19.625 11.2734 20.5C11.0286 21.3698 10.7474 22.099 10.4297 22.6875C10.2786 22.8594 10.0703 22.9792 9.80469 23.0469C9.53906 23.1198 9.26823 23.1562 8.99219 23.1562C7.92448 23.1562 7.17188 22.9609 6.73438 22.5703L6.90625 21.1016L6.54688 19.6406ZM20.9766 16.7969C20.9766 15.5938 20.9974 14.526 21.0391 13.5938L19.9844 13.4297C19.9167 13.237 19.8646 13.0234 19.8281 12.7891C19.7917 12.5547 19.7734 12.3281 19.7734 12.1094C19.7734 11.9427 19.7865 11.7604 19.8125 11.5625C20.4948 11.3229 21.3958 11.151 22.5156 11.0469C23.6354 10.9427 24.7292 10.8906 25.7969 10.8906C26.5938 10.8906 27.2786 10.9531 27.8516 11.0781C28.4245 11.2031 28.9036 11.487 29.2891 11.9297C29.6797 12.3672 29.875 13.0234 29.875 13.8984C29.875 14.2578 29.8177 14.6562 29.7031 15.0938C29.5885 15.526 29.4297 15.9583 29.2266 16.3906C29.0391 16.7865 28.8255 17.1641 28.5859 17.5234C28.3516 17.8776 28.1068 18.1823 27.8516 18.4375C28.0026 18.8333 28.1589 19.1953 28.3203 19.5234C28.4818 19.8464 28.7292 20.2396 29.0625 20.7031L30.1562 20.2422C30.5625 20.5911 30.7995 21.0547 30.8672 21.6328C30.8672 21.6641 30.7422 21.8125 30.4922 22.0781C30.2474 22.3438 29.9271 22.5911 29.5312 22.8203C29.1354 23.0443 28.6901 23.1562 28.1953 23.1562C27.8099 23.1562 27.4635 23.0885 27.1562 22.9531C26.8542 22.8177 26.6042 22.5807 26.4062 22.2422C26.2135 21.9089 26.0599 21.513 25.9453 21.0547C25.8307 20.5964 25.75 20.1432 25.7031 19.6953L23.9219 19.6172C23.9688 20.0234 24.0286 20.4427 24.1016 20.875C24.1745 21.3021 24.2188 21.5599 24.2344 21.6484C24.3229 22.1641 24.3802 22.5156 24.4062 22.7031C24.1667 22.849 23.875 22.9609 23.5312 23.0391C23.1927 23.1172 22.8464 23.1562 22.4922 23.1562C22.0859 23.1562 21.6927 23.1016 21.3125 22.9922C21.1979 22.5339 21.112 21.7318 21.0547 20.5859C21.0026 19.4349 20.9766 18.1719 20.9766 16.7969ZM25.8359 17.7344C26.0182 17.2135 26.1615 16.6484 26.2656 16.0391C26.375 15.4245 26.474 14.6927 26.5625 13.8438C26.4115 13.7865 26.2135 13.7422 25.9688 13.7109C25.724 13.6797 25.487 13.6641 25.2578 13.6641C24.737 13.6641 24.3464 13.6771 24.0859 13.7031C24.0286 15.6615 23.9661 17.0495 23.8984 17.8672L25.8359 17.7344Z" fill="#F4CE14"/>
</svg>
