<svg width="140" height="45" viewBox="0 0 140 45" fill="none" xmlns="http://www.w3.org/2000/svg">
<rect width="31" height="29.2482" transform="translate(0 8)" fill="#245D4C"/>
<path d="M4.54688 24.6406C4.17188 23.0938 3.84115 21.7995 3.55469 20.7578C3.26823 19.7109 3.03906 19.0599 2.86719 18.8047L2.08594 18.75C1.9349 18.3542 1.82812 17.8672 1.76562 17.2891C1.85417 17.0026 2.02083 16.7552 2.26562 16.5469C2.51042 16.3333 2.79688 16.1719 3.125 16.0625C3.45312 15.9531 3.78385 15.8984 4.11719 15.8984C4.8776 15.8984 5.44531 16.2474 5.82031 16.9453C5.99219 17.263 6.13802 17.6458 6.25781 18.0938C6.3776 18.5365 6.48958 19.0625 6.59375 19.6719C6.76562 20.6979 6.88542 21.6198 6.95312 22.4375C7.02083 23.25 7.07552 24.1146 7.11719 25.0312L7.14844 25.7344H7.26562C7.39583 25.4479 7.53906 24.8307 7.69531 23.8828C7.85156 22.9349 7.98698 21.9323 8.10156 20.875C8.21615 19.8125 8.27865 19.0234 8.28906 18.5078L7.30469 18.3594C7.23177 18.0833 7.1849 17.8359 7.16406 17.6172C7.14323 17.3984 7.13281 17.1328 7.13281 16.8203C7.24219 16.6849 7.42448 16.5443 7.67969 16.3984C7.9349 16.2526 8.23177 16.1302 8.57031 16.0312C8.90885 15.9323 9.24479 15.8828 9.57812 15.8828C10.026 15.8828 10.4297 15.9583 10.7891 16.1094C11.1536 16.2552 11.4427 16.474 11.6562 16.7656C11.875 17.0573 11.987 17.4141 11.9922 17.8359V19.0391C12.2266 19.9505 12.4297 21.0208 12.6016 22.25C12.7786 23.474 12.9089 24.6328 12.9922 25.7266H13.0781C13.2031 25.4349 13.3438 24.8151 13.5 23.8672C13.6615 22.9141 13.8021 21.9115 13.9219 20.8594C14.0417 19.8021 14.1042 19.0182 14.1094 18.5078L13.1875 18.3594C13.1146 18.0833 13.0677 17.8359 13.0469 17.6172C13.026 17.3984 13.0156 17.1328 13.0156 16.8203C13.1198 16.6849 13.3021 16.5443 13.5625 16.3984C13.8229 16.2526 14.1224 16.1302 14.4609 16.0312C14.8047 15.9323 15.1432 15.8828 15.4766 15.8828C16.1589 15.8828 16.6693 16.0599 17.0078 16.4141C17.3464 16.7682 17.5156 17.3073 17.5156 18.0312C17.5156 18.7188 17.401 19.6042 17.1719 20.6875C16.9427 21.7708 16.6562 22.7891 16.3125 23.7422C16.0156 24.5755 15.724 25.2969 15.4375 25.9062C15.151 26.5104 14.7969 27.1042 14.375 27.6875C14.2031 27.8646 13.9766 27.987 13.6953 28.0547C13.4193 28.1224 13.1328 28.1562 12.8359 28.1562C11.8099 28.1562 11.0521 27.9583 10.5625 27.5625L10.7734 25.9609L10.2656 23.3281C10.1458 22.6354 10.0677 22.0833 10.0312 21.6719L9.92969 21.6641L9.90625 22.6562C9.73438 23.6771 9.52344 24.625 9.27344 25.5C9.02865 26.3698 8.7474 27.099 8.42969 27.6875C8.27865 27.8594 8.07031 27.9792 7.80469 28.0469C7.53906 28.1198 7.26823 28.1562 6.99219 28.1562C5.92448 28.1562 5.17188 27.9609 4.73438 27.5703L4.90625 26.1016L4.54688 24.6406ZM18.9766 21.7969C18.9766 20.5938 18.9974 19.526 19.0391 18.5938L17.9844 18.4297C17.9167 18.237 17.8646 18.0234 17.8281 17.7891C17.7917 17.5547 17.7734 17.3281 17.7734 17.1094C17.7734 16.9427 17.7865 16.7604 17.8125 16.5625C18.4948 16.3229 19.3958 16.151 20.5156 16.0469C21.6354 15.9427 22.7292 15.8906 23.7969 15.8906C24.5938 15.8906 25.2786 15.9531 25.8516 16.0781C26.4245 16.2031 26.9036 16.487 27.2891 16.9297C27.6797 17.3672 27.875 18.0234 27.875 18.8984C27.875 19.2578 27.8177 19.6562 27.7031 20.0938C27.5885 20.526 27.4297 20.9583 27.2266 21.3906C27.0391 21.7865 26.8255 22.1641 26.5859 22.5234C26.3516 22.8776 26.1068 23.1823 25.8516 23.4375C26.0026 23.8333 26.1589 24.1953 26.3203 24.5234C26.4818 24.8464 26.7292 25.2396 27.0625 25.7031L28.1562 25.2422C28.5625 25.5911 28.7995 26.0547 28.8672 26.6328C28.8672 26.6641 28.7422 26.8125 28.4922 27.0781C28.2474 27.3438 27.9271 27.5911 27.5312 27.8203C27.1354 28.0443 26.6901 28.1562 26.1953 28.1562C25.8099 28.1562 25.4635 28.0885 25.1562 27.9531C24.8542 27.8177 24.6042 27.5807 24.4062 27.2422C24.2135 26.9089 24.0599 26.513 23.9453 26.0547C23.8307 25.5964 23.75 25.1432 23.7031 24.6953L21.9219 24.6172C21.9688 25.0234 22.0286 25.4427 22.1016 25.875C22.1745 26.3021 22.2188 26.5599 22.2344 26.6484C22.3229 27.1641 22.3802 27.5156 22.4062 27.7031C22.1667 27.849 21.875 27.9609 21.5312 28.0391C21.1927 28.1172 20.8464 28.1562 20.4922 28.1562C20.0859 28.1562 19.6927 28.1016 19.3125 27.9922C19.1979 27.5339 19.112 26.7318 19.0547 25.5859C19.0026 24.4349 18.9766 23.1719 18.9766 21.7969ZM23.8359 22.7344C24.0182 22.2135 24.1615 21.6484 24.2656 21.0391C24.375 20.4245 24.474 19.6927 24.5625 18.8438C24.4115 18.7865 24.2135 18.7422 23.9688 18.7109C23.724 18.6797 23.487 18.6641 23.2578 18.6641C22.737 18.6641 22.3464 18.6771 22.0859 18.7031C22.0286 20.6615 21.9661 22.0495 21.8984 22.8672L23.8359 22.7344Z" fill="#F4CE14"/>
<path d="M39.515 14.6406C39.14 13.0938 38.8092 11.7995 38.5228 10.7578C38.2363 9.71094 38.0071 9.0599 37.8353 8.80469L37.054 8.75C36.903 8.35417 36.7962 7.86719 36.7337 7.28906C36.8222 7.0026 36.9889 6.75521 37.2337 6.54688C37.4785 6.33333 37.765 6.17188 38.0931 6.0625C38.4212 5.95312 38.7519 5.89844 39.0853 5.89844C39.8457 5.89844 40.4134 6.2474 40.7884 6.94531C40.9603 7.26302 41.1061 7.64583 41.2259 8.09375C41.3457 8.53646 41.4577 9.0625 41.5618 9.67188C41.7337 10.6979 41.8535 11.6198 41.9212 12.4375C41.9889 13.25 42.0436 14.1146 42.0853 15.0312L42.1165 15.7344H42.2337C42.3639 15.4479 42.5071 14.8307 42.6634 13.8828C42.8196 12.9349 42.9551 11.9323 43.0696 10.875C43.1842 9.8125 43.2467 9.02344 43.2571 8.50781L42.2728 8.35938C42.1998 8.08333 42.153 7.83594 42.1321 7.61719C42.1113 7.39844 42.1009 7.13281 42.1009 6.82031C42.2103 6.6849 42.3926 6.54427 42.6478 6.39844C42.903 6.2526 43.1998 6.13021 43.5384 6.03125C43.8769 5.93229 44.2129 5.88281 44.5462 5.88281C44.9941 5.88281 45.3978 5.95833 45.7571 6.10938C46.1217 6.25521 46.4108 6.47396 46.6243 6.76562C46.8431 7.05729 46.9551 7.41406 46.9603 7.83594V9.03906C47.1946 9.95052 47.3978 11.0208 47.5696 12.25C47.7467 13.474 47.8769 14.6328 47.9603 15.7266H48.0462C48.1712 15.4349 48.3118 14.8151 48.4681 13.8672C48.6295 12.9141 48.7702 11.9115 48.89 10.8594C49.0097 9.80208 49.0722 9.01823 49.0775 8.50781L48.1556 8.35938C48.0827 8.08333 48.0358 7.83594 48.015 7.61719C47.9941 7.39844 47.9837 7.13281 47.9837 6.82031C48.0879 6.6849 48.2702 6.54427 48.5306 6.39844C48.791 6.2526 49.0905 6.13021 49.429 6.03125C49.7728 5.93229 50.1113 5.88281 50.4446 5.88281C51.1269 5.88281 51.6373 6.0599 51.9759 6.41406C52.3144 6.76823 52.4837 7.30729 52.4837 8.03125C52.4837 8.71875 52.3691 9.60417 52.14 10.6875C51.9108 11.7708 51.6243 12.7891 51.2806 13.7422C50.9837 14.5755 50.692 15.2969 50.4056 15.9062C50.1191 16.5104 49.765 17.1042 49.3431 17.6875C49.1712 17.8646 48.9446 17.987 48.6634 18.0547C48.3873 18.1224 48.1009 18.1562 47.804 18.1562C46.778 18.1562 46.0202 17.9583 45.5306 17.5625L45.7415 15.9609L45.2337 13.3281C45.1139 12.6354 45.0358 12.0833 44.9993 11.6719L44.8978 11.6641L44.8743 12.6562C44.7025 13.6771 44.4915 14.625 44.2415 15.5C43.9967 16.3698 43.7155 17.099 43.3978 17.6875C43.2467 17.8594 43.0384 17.9792 42.7728 18.0469C42.5071 18.1198 42.2363 18.1562 41.9603 18.1562C40.8926 18.1562 40.14 17.9609 39.7025 17.5703L39.8743 16.1016L39.515 14.6406ZM53.5306 6.78906C53.5306 6.33073 53.679 5.95833 53.9759 5.67188C54.278 5.38542 54.7571 5.24219 55.4134 5.24219C56.0696 5.24219 56.5462 5.38542 56.8431 5.67188C57.1452 5.95833 57.2962 6.33073 57.2962 6.78906C57.2962 7.04948 57.2051 7.28906 57.0228 7.50781C56.8457 7.72656 56.6113 7.90104 56.3196 8.03125C56.028 8.15625 55.7259 8.21875 55.4134 8.21875C55.0748 8.21875 54.7597 8.14583 54.4681 8C54.1816 7.84896 53.9525 7.66146 53.7806 7.4375C53.6139 7.21354 53.5306 6.9974 53.5306 6.78906ZM53.1478 11.2578C53.0801 11.0026 53.0332 10.7708 53.0071 10.5625C52.9811 10.349 52.9681 10.1276 52.9681 9.89844L52.9759 9.67969C53.0853 9.53906 53.2545 9.39844 53.4837 9.25781C53.7181 9.11198 53.9889 8.98958 54.2962 8.89062C54.6087 8.79167 54.9316 8.74219 55.265 8.74219C55.9941 8.74219 56.5123 8.90625 56.8196 9.23438C57.1269 9.5625 57.2806 10.0729 57.2806 10.7656C57.2806 11.1823 57.2207 11.7266 57.1009 12.3984C56.9863 13.0703 56.8457 13.724 56.679 14.3594C56.5176 14.9896 56.3769 15.4401 56.2571 15.7109L56.2728 15.7266L57.429 15.3047C57.6373 15.4818 57.7936 15.6771 57.8978 15.8906C58.0071 16.1042 58.0775 16.3516 58.1087 16.6328C58.1087 16.6693 57.9941 16.8203 57.765 17.0859C57.5358 17.3464 57.2311 17.5911 56.8509 17.8203C56.4759 18.0443 56.041 18.1562 55.5462 18.1562C55.0462 18.1562 54.64 18.0208 54.3275 17.75C54.0202 17.4792 53.8665 17.0156 53.8665 16.3594C53.8665 15.5938 53.8873 14.7812 53.929 13.9219C53.9707 13.0625 54.0358 12.2292 54.1243 11.4219L53.1478 11.2578ZM58.5618 7.78125C58.4837 7.46354 58.4316 7.20052 58.4056 6.99219C58.3795 6.77865 58.3691 6.53385 58.3743 6.25781C58.4837 6.11719 58.653 5.97656 58.8821 5.83594C59.1165 5.6901 59.3873 5.56771 59.6946 5.46875C60.0071 5.36979 60.3301 5.32031 60.6634 5.32031C61.3144 5.32031 61.8144 5.48438 62.1634 5.8125C62.5123 6.14062 62.6868 6.625 62.6868 7.26562C62.6868 7.72396 62.6478 8.46094 62.5696 9.47656C62.4915 10.4922 62.3795 11.5729 62.2337 12.7188C62.0879 13.8594 61.9212 14.8568 61.7337 15.7109L61.7493 15.7266L62.9056 15.2422C63.3118 15.5911 63.5488 16.0547 63.6165 16.6328C63.6165 16.6693 63.4993 16.8203 63.265 17.0859C63.0306 17.3464 62.7207 17.5911 62.3353 17.8203C61.9551 18.0443 61.5176 18.1562 61.0228 18.1562C60.5071 18.1562 60.0879 18.013 59.765 17.7266C59.4472 17.4401 59.2962 16.9505 59.3118 16.2578L59.3275 14.8516C59.3327 13.5182 59.3457 12.3177 59.3665 11.25C59.3926 10.1823 59.4446 9.08073 59.5228 7.94531L58.5618 7.78125ZM64.2884 13.4922C64.2884 12.7005 64.3978 11.9427 64.6165 11.2188C64.8405 10.4948 65.1894 9.90104 65.6634 9.4375C66.1426 8.97396 66.7441 8.74219 67.4681 8.74219C68.2806 8.74219 69.0566 9 69.7962 9.51562L69.9212 9.4375C69.9056 8.82812 69.8301 8.27604 69.6946 7.78125L68.1087 7.67969C68.0358 7.58594 67.9785 7.44792 67.9368 7.26562C67.8952 7.07812 67.8743 6.88542 67.8743 6.6875C67.8743 6.42188 67.9056 6.19271 67.9681 6C68.2806 5.77604 68.6816 5.60677 69.1712 5.49219C69.6608 5.3776 70.1504 5.32031 70.64 5.32031C71.1816 5.32031 71.5905 5.4349 71.8665 5.66406C72.1426 5.88802 72.3275 6.22917 72.4212 6.6875C72.5202 7.14062 72.5696 7.77083 72.5696 8.57812C72.5696 9.64062 72.5254 10.8464 72.4368 12.1953C72.3483 13.5443 72.2337 14.6458 72.0931 15.5L72.0618 15.6328L72.9681 15.2422C73.1191 15.4036 73.2519 15.6016 73.3665 15.8359C73.4863 16.0651 73.5618 16.3307 73.5931 16.6328C73.5202 16.7891 73.3613 16.9896 73.1165 17.2344C72.8717 17.474 72.5722 17.6875 72.2181 17.875C71.8639 18.0625 71.4941 18.1562 71.1087 18.1562C70.6764 18.1562 70.3431 18.0286 70.1087 17.7734C69.8795 17.513 69.765 17.1823 69.765 16.7812C69.765 16.6771 69.791 16.4635 69.8431 16.1406C69.9004 15.8177 69.9472 15.5938 69.9837 15.4688L69.7493 15.3984C69.4837 16.3307 69.1321 17.0234 68.6946 17.4766C68.2571 17.9297 67.7155 18.1562 67.0696 18.1562C66.3769 18.1562 65.8222 17.9271 65.4056 17.4688C64.9941 17.0052 64.7051 16.4245 64.5384 15.7266C64.3717 15.0286 64.2884 14.2839 64.2884 13.4922ZM69.6478 13.3516C69.679 13.1641 69.6946 12.9453 69.6946 12.6953C69.6946 12.5339 69.6868 12.3802 69.6712 12.2344C69.6608 12.0885 69.6478 11.9844 69.6321 11.9219C69.4238 11.7708 69.1868 11.6641 68.9212 11.6016C68.6608 11.5391 68.4212 11.5078 68.2025 11.5078C68.067 11.5078 67.9212 11.5208 67.765 11.5469C67.6608 11.651 67.5775 11.8776 67.515 12.2266C67.4525 12.5703 67.4212 12.9583 67.4212 13.3906C67.4212 13.8542 67.4525 14.3047 67.515 14.7422C67.5827 15.1745 67.6764 15.513 67.7962 15.7578C67.8795 15.7578 68.041 15.6302 68.2806 15.375C68.5254 15.1146 68.778 14.7969 69.0384 14.4219C69.2988 14.0417 69.5019 13.6849 69.6478 13.3516ZM73.9212 7.78125C73.8431 7.46354 73.791 7.20052 73.765 6.99219C73.7389 6.77865 73.7285 6.53385 73.7337 6.25781C73.8431 6.11719 74.0123 5.97656 74.2415 5.83594C74.4759 5.6901 74.7467 5.56771 75.054 5.46875C75.3665 5.36979 75.6894 5.32031 76.0228 5.32031C76.6738 5.32031 77.1738 5.48438 77.5228 5.8125C77.8717 6.14062 78.0462 6.625 78.0462 7.26562C78.0462 7.72396 78.0071 8.46094 77.929 9.47656C77.8509 10.4922 77.7389 11.5729 77.5931 12.7188C77.4472 13.8594 77.2806 14.8568 77.0931 15.7109L77.1087 15.7266L78.265 15.2422C78.6712 15.5911 78.9082 16.0547 78.9759 16.6328C78.9759 16.6693 78.8587 16.8203 78.6243 17.0859C78.39 17.3464 78.0801 17.5911 77.6946 17.8203C77.3144 18.0443 76.8769 18.1562 76.3821 18.1562C75.8665 18.1562 75.4472 18.013 75.1243 17.7266C74.8066 17.4401 74.6556 16.9505 74.6712 16.2578L74.6868 14.8516C74.692 13.5182 74.7051 12.3177 74.7259 11.25C74.7519 10.1823 74.804 9.08073 74.8821 7.94531L73.9212 7.78125ZM82.1243 12.8516C82.4316 12.8516 82.7702 12.8828 83.14 12.9453C83.515 13.0078 83.8587 13.0833 84.1712 13.1719V12.9297C84.1712 12.7682 84.166 12.5885 84.1556 12.3906C84.1504 12.1927 84.14 12.0625 84.1243 12C84.0775 11.9115 83.942 11.8203 83.7181 11.7266C83.4993 11.6328 83.14 11.5859 82.64 11.5859C82.3327 11.5859 82.015 11.625 81.6868 11.7031C81.3639 11.776 81.0045 11.875 80.6087 12C80.3952 11.6458 80.2233 11.3099 80.0931 10.9922C79.9681 10.6693 79.9056 10.3464 79.9056 10.0234C79.9056 9.92448 79.9134 9.82552 79.929 9.72656C80.7728 9.07031 81.8639 8.74219 83.2025 8.74219C83.942 8.74219 84.5983 8.82552 85.1712 8.99219C85.7441 9.15885 86.2155 9.48177 86.5853 9.96094C86.9551 10.4401 87.14 11.1198 87.14 12C87.14 12.8594 87.0384 13.6927 86.8353 14.5C86.6373 15.3021 86.5358 15.7109 86.5306 15.7266L87.6634 15.2422C87.8144 15.4036 87.9472 15.6016 88.0618 15.8359C88.1816 16.0651 88.2571 16.3307 88.2884 16.6328C88.2155 16.7891 88.0566 16.9896 87.8118 17.2344C87.567 17.474 87.2676 17.6875 86.9134 17.875C86.5592 18.0625 86.1894 18.1562 85.804 18.1562C85.3717 18.1562 85.0436 18.0286 84.8196 17.7734C84.6009 17.5182 84.4915 17.1875 84.4915 16.7812C84.4915 16.5521 84.5254 16.3203 84.5931 16.0859L84.3587 16.0156C84.2129 16.8385 83.903 17.401 83.429 17.7031C82.9551 18.0052 82.4316 18.1562 81.8587 18.1562C81.4837 18.1562 81.1217 18.0521 80.7728 17.8438C80.4238 17.6302 80.14 17.3229 79.9212 16.9219C79.7025 16.5156 79.5931 16.0417 79.5931 15.5C79.5931 14.6354 79.8092 13.9792 80.2415 13.5312C80.6738 13.0781 81.3014 12.8516 82.1243 12.8516ZM83.015 15.8281C83.1452 15.8021 83.2988 15.7292 83.4759 15.6094C83.6582 15.4896 83.8196 15.3464 83.9603 15.1797C84.1009 15.013 84.1842 14.8542 84.2103 14.7031L84.1634 14.5156C83.8873 14.4792 83.5931 14.4609 83.2806 14.4609C83.015 14.4609 82.8327 14.4818 82.7337 14.5234C82.567 14.7109 82.4837 14.9193 82.4837 15.1484C82.4837 15.3151 82.5254 15.4661 82.6087 15.6016C82.6972 15.737 82.8327 15.8125 83.015 15.8281ZM89.4212 15.2812C89.4212 14.4323 89.4316 13.7917 89.4525 13.3594C89.4733 12.9219 89.528 12.2812 89.6165 11.4375L88.7103 11.3203C88.6009 10.9818 88.528 10.6797 88.4915 10.4141C88.4603 10.1484 88.4446 9.80469 88.4446 9.38281C88.528 9.3099 88.666 9.22396 88.8587 9.125C89.0566 9.02083 89.291 8.93229 89.5618 8.85938C89.8327 8.78125 90.1061 8.74219 90.3821 8.74219C91.0123 8.74219 91.4577 8.8776 91.7181 9.14844C91.9837 9.41927 92.1165 9.82552 92.1165 10.3672C92.1165 10.6693 92.0722 11.0781 91.9837 11.5938C91.8379 12.4219 91.765 12.8568 91.765 12.8984C91.765 12.9245 91.7832 12.9505 91.8196 12.9766C91.8561 12.9974 91.8952 13.0078 91.9368 13.0078C91.9837 13.0078 92.015 12.9896 92.0306 12.9531C92.2389 12.125 92.4472 11.4323 92.6556 10.875C92.8639 10.3177 93.179 9.82292 93.6009 9.39062C94.0228 8.95833 94.5696 8.74219 95.2415 8.74219C96.0748 8.74219 96.6738 8.9974 97.0384 9.50781C97.403 10.013 97.5853 10.651 97.5853 11.4219C97.5853 12.1094 97.5045 12.7734 97.3431 13.4141C97.1816 14.0495 96.9811 14.7135 96.7415 15.4062C96.7519 15.3802 96.7155 15.4818 96.6321 15.7109L96.6478 15.7266L97.7884 15.2578C98.1946 15.6068 98.4316 16.0703 98.4993 16.6484C98.4993 16.6849 98.3821 16.8333 98.1478 17.0938C97.9186 17.3542 97.6139 17.5964 97.2337 17.8203C96.8535 18.0443 96.416 18.1562 95.9212 18.1562C95.4264 18.1562 95.0228 18.0234 94.7103 17.7578C94.3978 17.4922 94.2415 17.0391 94.2415 16.3984C94.2415 15.888 94.2623 15.2057 94.304 14.3516C94.3457 13.4974 94.3873 12.8099 94.429 12.2891C94.2936 12.1432 94.1269 12.0651 93.929 12.0547C93.7467 12.2891 93.4785 12.7578 93.1243 13.4609C92.7702 14.1641 92.5202 14.6901 92.3743 15.0391C92.3639 15.112 92.3587 15.1823 92.3587 15.25C92.3587 15.5104 92.3978 15.862 92.4759 16.3047C92.554 16.7422 92.6504 17.151 92.765 17.5312C92.6712 17.7083 92.4785 17.8568 92.1868 17.9766C91.8952 18.0964 91.5358 18.1562 91.1087 18.1562C90.7233 18.1562 90.4134 18.125 90.179 18.0625C89.9498 18 89.7884 17.9349 89.6946 17.8672C89.6009 17.7943 89.554 17.75 89.554 17.7344C89.5488 17.6875 89.5358 17.5651 89.515 17.3672C89.4941 17.1641 89.4733 16.8828 89.4525 16.5234C89.4316 16.1589 89.4212 15.7448 89.4212 15.2812ZM99.1321 13.4922C99.1321 12.7005 99.2415 11.9427 99.4603 11.2188C99.6842 10.4948 100.033 9.90104 100.507 9.4375C100.986 8.97396 101.588 8.74219 102.312 8.74219C103.124 8.74219 103.9 9 104.64 9.51562L104.765 9.4375C104.749 8.82812 104.674 8.27604 104.538 7.78125L102.952 7.67969C102.88 7.58594 102.822 7.44792 102.781 7.26562C102.739 7.07812 102.718 6.88542 102.718 6.6875C102.718 6.42188 102.749 6.19271 102.812 6C103.124 5.77604 103.525 5.60677 104.015 5.49219C104.505 5.3776 104.994 5.32031 105.484 5.32031C106.025 5.32031 106.434 5.4349 106.71 5.66406C106.986 5.88802 107.171 6.22917 107.265 6.6875C107.364 7.14062 107.413 7.77083 107.413 8.57812C107.413 9.64062 107.369 10.8464 107.281 12.1953C107.192 13.5443 107.077 14.6458 106.937 15.5L106.906 15.6328L107.812 15.2422C107.963 15.4036 108.096 15.6016 108.21 15.8359C108.33 16.0651 108.406 16.3307 108.437 16.6328C108.364 16.7891 108.205 16.9896 107.96 17.2344C107.715 17.474 107.416 17.6875 107.062 17.875C106.708 18.0625 106.338 18.1562 105.952 18.1562C105.52 18.1562 105.187 18.0286 104.952 17.7734C104.723 17.513 104.609 17.1823 104.609 16.7812C104.609 16.6771 104.635 16.4635 104.687 16.1406C104.744 15.8177 104.791 15.5938 104.827 15.4688L104.593 15.3984C104.327 16.3307 103.976 17.0234 103.538 17.4766C103.101 17.9297 102.559 18.1562 101.913 18.1562C101.221 18.1562 100.666 17.9271 100.249 17.4688C99.8379 17.0052 99.5488 16.4245 99.3821 15.7266C99.2155 15.0286 99.1321 14.2839 99.1321 13.4922ZM104.492 13.3516C104.523 13.1641 104.538 12.9453 104.538 12.6953C104.538 12.5339 104.531 12.3802 104.515 12.2344C104.505 12.0885 104.492 11.9844 104.476 11.9219C104.268 11.7708 104.031 11.6641 103.765 11.6016C103.505 11.5391 103.265 11.5078 103.046 11.5078C102.911 11.5078 102.765 11.5208 102.609 11.5469C102.505 11.651 102.421 11.8776 102.359 12.2266C102.296 12.5703 102.265 12.9583 102.265 13.3906C102.265 13.8542 102.296 14.3047 102.359 14.7422C102.426 15.1745 102.52 15.513 102.64 15.7578C102.723 15.7578 102.885 15.6302 103.124 15.375C103.369 15.1146 103.622 14.7969 103.882 14.4219C104.143 14.0417 104.346 13.6849 104.492 13.3516ZM110.249 19.1328C110.286 19.0234 110.312 18.8828 110.327 18.7109C110.348 18.5443 110.353 18.3802 110.343 18.2188C110.327 17.849 110.299 17.3411 110.257 16.6953C110.205 15.8203 110.166 15.0964 110.14 14.5234C110.114 13.9505 110.101 13.4062 110.101 12.8906C110.101 12.7135 110.106 12.474 110.117 12.1719L110.124 11.9844L109.085 11.8438C109.012 11.6042 108.963 11.3698 108.937 11.1406C108.916 10.9115 108.908 10.6328 108.913 10.3047C109.247 10.1276 109.705 9.96875 110.288 9.82812L110.32 9.70312C109.971 9.39062 109.695 9.04948 109.492 8.67969C109.288 8.3099 109.187 7.92188 109.187 7.51562C109.187 7.04688 109.317 6.64844 109.577 6.32031C109.838 5.98698 110.202 5.73698 110.671 5.57031C111.145 5.40365 111.7 5.32031 112.335 5.32031C112.71 5.32031 113.085 5.34115 113.46 5.38281C113.84 5.41927 114.299 5.51302 114.835 5.66406C114.908 5.88281 114.945 6.13802 114.945 6.42969C114.945 6.75781 114.903 7.09896 114.82 7.45312C114.742 7.80208 114.632 8.10417 114.492 8.35938C113.986 8.19792 113.58 8.07552 113.273 7.99219C112.971 7.90885 112.637 7.84115 112.273 7.78906C112.195 7.80469 112.122 7.84635 112.054 7.91406C111.992 7.97656 111.955 8.03646 111.945 8.09375C111.992 8.33333 112.09 8.61198 112.242 8.92969C112.398 9.2474 112.572 9.53646 112.765 9.79688L114.937 9.39844C115.119 9.66927 115.21 10.0573 115.21 10.5625C115.21 10.8698 115.176 11.1641 115.109 11.4453C115.046 11.7266 114.968 11.9193 114.874 12.0234C114.807 12.0286 114.708 12.0312 114.577 12.0312C114.072 12.0312 113.611 11.9688 113.195 11.8438C113.174 12.4583 113.156 12.8958 113.14 13.1562C113.135 13.3542 113.122 13.6875 113.101 14.1562L113.054 15.4453C113.028 16.1901 113.002 16.8047 112.976 17.2891C112.95 17.7734 112.911 18.237 112.859 18.6797C112.812 19.1016 112.747 19.4609 112.663 19.7578C112.585 20.0599 112.463 20.3229 112.296 20.5469C111.885 21.099 111.208 21.375 110.265 21.375C109.89 21.375 109.515 21.3021 109.14 21.1562C108.77 21.0156 108.484 20.7865 108.281 20.4688C108.27 20.1562 108.317 19.8411 108.421 19.5234C108.52 19.2109 108.671 18.9427 108.874 18.7188L110.249 19.1328ZM116.281 6.78906C116.281 6.33073 116.429 5.95833 116.726 5.67188C117.028 5.38542 117.507 5.24219 118.163 5.24219C118.82 5.24219 119.296 5.38542 119.593 5.67188C119.895 5.95833 120.046 6.33073 120.046 6.78906C120.046 7.04948 119.955 7.28906 119.773 7.50781C119.596 7.72656 119.361 7.90104 119.07 8.03125C118.778 8.15625 118.476 8.21875 118.163 8.21875C117.825 8.21875 117.51 8.14583 117.218 8C116.932 7.84896 116.702 7.66146 116.531 7.4375C116.364 7.21354 116.281 6.9974 116.281 6.78906ZM115.898 11.2578C115.83 11.0026 115.783 10.7708 115.757 10.5625C115.731 10.349 115.718 10.1276 115.718 9.89844L115.726 9.67969C115.835 9.53906 116.005 9.39844 116.234 9.25781C116.468 9.11198 116.739 8.98958 117.046 8.89062C117.359 8.79167 117.682 8.74219 118.015 8.74219C118.744 8.74219 119.262 8.90625 119.57 9.23438C119.877 9.5625 120.031 10.0729 120.031 10.7656C120.031 11.1823 119.971 11.7266 119.851 12.3984C119.736 13.0703 119.596 13.724 119.429 14.3594C119.268 14.9896 119.127 15.4401 119.007 15.7109L119.023 15.7266L120.179 15.3047C120.387 15.4818 120.544 15.6771 120.648 15.8906C120.757 16.1042 120.827 16.3516 120.859 16.6328C120.859 16.6693 120.744 16.8203 120.515 17.0859C120.286 17.3464 119.981 17.5911 119.601 17.8203C119.226 18.0443 118.791 18.1562 118.296 18.1562C117.796 18.1562 117.39 18.0208 117.077 17.75C116.77 17.4792 116.617 17.0156 116.617 16.3594C116.617 15.5938 116.637 14.7812 116.679 13.9219C116.721 13.0625 116.786 12.2292 116.874 11.4219L115.898 11.2578ZM122.296 15.9062C122.296 15.6823 122.301 15.1328 122.312 14.2578C122.327 12.5391 122.335 11.599 122.335 11.4375L121.617 11.3203C121.518 11.0234 121.447 10.7448 121.406 10.4844C121.364 10.224 121.343 9.96094 121.343 9.69531C121.343 9.58594 121.346 9.5026 121.351 9.44531C121.439 9.36719 121.577 9.27344 121.765 9.16406C121.952 9.05469 122.174 8.95833 122.429 8.875C122.684 8.78646 122.945 8.74219 123.21 8.74219C123.83 8.74219 124.278 8.88021 124.554 9.15625C124.835 9.43229 124.976 9.83594 124.976 10.3672C124.976 10.6901 124.934 11.1042 124.851 11.6094C124.773 12.1094 124.692 12.4661 124.609 12.6797L124.89 12.7266L125.359 10.9609C125.567 10.1641 125.827 9.59635 126.14 9.25781C126.452 8.91406 126.804 8.74219 127.195 8.74219C127.45 8.74219 127.702 8.78125 127.952 8.85938C128.208 8.9375 128.403 9.03385 128.538 9.14844C128.684 9.47135 128.757 9.90104 128.757 10.4375C128.757 10.8125 128.721 11.1849 128.648 11.5547C128.575 11.9193 128.481 12.2135 128.367 12.4375L126.726 12.2188C126.393 12.5729 126.038 13.0651 125.663 13.6953C125.288 14.3203 124.989 14.8958 124.765 15.4219L124.757 15.8281L126.273 15.4688C126.528 15.8594 126.676 16.3229 126.718 16.8594C126.718 16.8906 126.601 17.0182 126.367 17.2422C126.132 17.4661 125.822 17.6745 125.437 17.8672C125.057 18.0547 124.619 18.1484 124.124 18.1484C123.614 18.1484 123.187 18.013 122.843 17.7422C122.505 17.4661 122.325 17.0026 122.304 16.3516C122.299 16.2734 122.296 16.125 122.296 15.9062ZM129.327 13.4609C129.327 12.5599 129.478 11.7552 129.781 11.0469C130.083 10.3385 130.549 9.77865 131.179 9.36719C131.814 8.95052 132.606 8.74219 133.554 8.74219C134.049 8.74219 134.544 8.80208 135.038 8.92188C135.533 9.03646 135.952 9.22917 136.296 9.5C136.614 9.75521 136.843 10.0938 136.984 10.5156C137.13 10.9323 137.202 11.3958 137.202 11.9062C137.202 12.2448 137.174 12.5911 137.117 12.9453C137.054 13.0495 136.932 13.1875 136.749 13.3594C136.567 13.526 136.353 13.6901 136.109 13.8516C135.864 14.013 135.627 14.138 135.398 14.2266C135.179 14.2422 134.952 14.25 134.718 14.25C134.307 14.25 133.89 14.2318 133.468 14.1953C133.046 14.1589 132.676 14.1172 132.359 14.0703C132.4 14.513 132.536 14.8984 132.765 15.2266C132.994 15.5547 133.359 15.7188 133.859 15.7188C133.906 15.7188 133.981 15.7135 134.085 15.7031C134.403 15.6719 134.773 15.5885 135.195 15.4531C135.622 15.3125 136.046 15.151 136.468 14.9688C136.666 15.1667 136.812 15.3646 136.906 15.5625C136.999 15.7604 137.064 16.0443 137.101 16.4141C136.939 16.6016 136.676 16.8307 136.312 17.1016C135.952 17.3724 135.512 17.6172 134.992 17.8359C134.471 18.0495 133.926 18.1562 133.359 18.1562C132.505 18.1562 131.773 17.9505 131.163 17.5391C130.559 17.1224 130.101 16.5599 129.788 15.8516C129.481 15.138 129.327 14.3411 129.327 13.4609ZM134.359 11.6641C134.286 11.5859 134.163 11.526 133.992 11.4844C133.82 11.4375 133.64 11.4141 133.452 11.4141C133.301 11.4141 133.148 11.4271 132.992 11.4531C132.84 11.4792 132.749 11.5078 132.718 11.5391C132.541 11.888 132.429 12.2839 132.382 12.7266L134.468 12.5234L134.359 11.6641ZM38.5696 31.7969C38.5696 30.5938 38.5905 29.526 38.6321 28.5938L37.5775 28.4297C37.5097 28.237 37.4577 28.0234 37.4212 27.7891C37.3847 27.5547 37.3665 27.3281 37.3665 27.1094C37.3665 26.9427 37.3795 26.7604 37.4056 26.5625C38.0879 26.3229 38.9889 26.151 40.1087 26.0469C41.2285 25.9427 42.3222 25.8906 43.39 25.8906C44.1868 25.8906 44.8717 25.9531 45.4446 26.0781C46.0176 26.2031 46.4967 26.487 46.8821 26.9297C47.2728 27.3672 47.4681 28.0234 47.4681 28.8984C47.4681 29.2578 47.4108 29.6562 47.2962 30.0938C47.1816 30.526 47.0228 30.9583 46.8196 31.3906C46.6321 31.7865 46.4186 32.1641 46.179 32.5234C45.9446 32.8776 45.6998 33.1823 45.4446 33.4375C45.5957 33.8333 45.7519 34.1953 45.9134 34.5234C46.0748 34.8464 46.3222 35.2396 46.6556 35.7031L47.7493 35.2422C48.1556 35.5911 48.3926 36.0547 48.4603 36.6328C48.4603 36.6641 48.3353 36.8125 48.0853 37.0781C47.8405 37.3438 47.5202 37.5911 47.1243 37.8203C46.7285 38.0443 46.2832 38.1562 45.7884 38.1562C45.403 38.1562 45.0566 38.0885 44.7493 37.9531C44.4472 37.8177 44.1972 37.5807 43.9993 37.2422C43.8066 36.9089 43.653 36.513 43.5384 36.0547C43.4238 35.5964 43.3431 35.1432 43.2962 34.6953L41.515 34.6172C41.5618 35.0234 41.6217 35.4427 41.6946 35.875C41.7676 36.3021 41.8118 36.5599 41.8275 36.6484C41.916 37.1641 41.9733 37.5156 41.9993 37.7031C41.7597 37.849 41.4681 37.9609 41.1243 38.0391C40.7858 38.1172 40.4394 38.1562 40.0853 38.1562C39.679 38.1562 39.2858 38.1016 38.9056 37.9922C38.791 37.5339 38.7051 36.7318 38.6478 35.5859C38.5957 34.4349 38.5696 33.1719 38.5696 31.7969ZM43.429 32.7344C43.6113 32.2135 43.7545 31.6484 43.8587 31.0391C43.9681 30.4245 44.067 29.6927 44.1556 28.8438C44.0045 28.7865 43.8066 28.7422 43.5618 28.7109C43.317 28.6797 43.0801 28.6641 42.8509 28.6641C42.3301 28.6641 41.9394 28.6771 41.679 28.7031C41.6217 30.6615 41.5592 32.0495 41.4915 32.8672L43.429 32.7344ZM48.8118 33.4609C48.8118 32.5599 48.9629 31.7552 49.265 31.0469C49.567 30.3385 50.0332 29.7786 50.6634 29.3672C51.2988 28.9505 52.0905 28.7422 53.0384 28.7422C53.5332 28.7422 54.028 28.8021 54.5228 28.9219C55.0176 29.0365 55.4368 29.2292 55.7806 29.5C56.0983 29.7552 56.3275 30.0938 56.4681 30.5156C56.6139 30.9323 56.6868 31.3958 56.6868 31.9062C56.6868 32.2448 56.6582 32.5911 56.6009 32.9453C56.5384 33.0495 56.416 33.1875 56.2337 33.3594C56.0514 33.526 55.8379 33.6901 55.5931 33.8516C55.3483 34.013 55.1113 34.138 54.8821 34.2266C54.6634 34.2422 54.4368 34.25 54.2025 34.25C53.791 34.25 53.3743 34.2318 52.9525 34.1953C52.5306 34.1589 52.1608 34.1172 51.8431 34.0703C51.8847 34.513 52.0202 34.8984 52.2493 35.2266C52.4785 35.5547 52.8431 35.7188 53.3431 35.7188C53.39 35.7188 53.4655 35.7135 53.5696 35.7031C53.8873 35.6719 54.2571 35.5885 54.679 35.4531C55.1061 35.3125 55.5306 35.151 55.9525 34.9688C56.1504 35.1667 56.2962 35.3646 56.39 35.5625C56.4837 35.7604 56.5488 36.0443 56.5853 36.4141C56.4238 36.6016 56.1608 36.8307 55.7962 37.1016C55.4368 37.3724 54.9967 37.6172 54.4759 37.8359C53.9551 38.0495 53.4108 38.1562 52.8431 38.1562C51.9889 38.1562 51.2571 37.9505 50.6478 37.5391C50.0436 37.1224 49.5853 36.5599 49.2728 35.8516C48.9655 35.138 48.8118 34.3411 48.8118 33.4609ZM53.8431 31.6641C53.7702 31.5859 53.6478 31.526 53.4759 31.4844C53.304 31.4375 53.1243 31.4141 52.9368 31.4141C52.7858 31.4141 52.6321 31.4271 52.4759 31.4531C52.3248 31.4792 52.2337 31.5078 52.2025 31.5391C52.0254 31.888 51.9134 32.2839 51.8665 32.7266L53.9525 32.5234L53.8431 31.6641ZM58.4681 35.2422C58.9264 35.4245 59.2936 35.5651 59.5696 35.6641C59.8457 35.763 60.1478 35.849 60.4759 35.9219C60.8092 35.9948 61.14 36.0312 61.4681 36.0312C61.6139 36.0312 61.7181 36.0182 61.7806 35.9922C61.7962 35.9714 61.8092 35.9401 61.8196 35.8984C61.8353 35.8516 61.8431 35.8047 61.8431 35.7578C61.8431 35.6536 61.7832 35.5677 61.6634 35.5C61.4759 35.3958 61.1426 35.2318 60.6634 35.0078C60.0071 34.6953 59.4863 34.4167 59.1009 34.1719C58.7207 33.9271 58.3978 33.6016 58.1321 33.1953C57.8717 32.7891 57.7415 32.2786 57.7415 31.6641C57.7415 30.7839 58.0045 30.0781 58.5306 29.5469C59.0566 29.0104 59.89 28.7422 61.0306 28.7422C62.39 28.7422 63.4472 28.9193 64.2025 29.2734C64.2389 29.4245 64.2571 29.6146 64.2571 29.8438C64.2571 30.2812 64.1894 30.7292 64.054 31.1875C63.9186 31.6406 63.7415 31.9766 63.5228 32.1953C63.2259 32.0964 62.8066 31.9375 62.265 31.7188C61.8691 31.5625 61.554 31.4427 61.3196 31.3594C61.0905 31.2708 60.8795 31.2083 60.6868 31.1719C60.5827 31.1979 60.4993 31.2604 60.4368 31.3594C60.3743 31.4531 60.3431 31.5651 60.3431 31.6953C60.3431 31.8099 60.3769 31.9062 60.4446 31.9844C60.5123 32.0625 60.5879 32.125 60.6712 32.1719C60.7597 32.2135 60.8847 32.2708 61.0462 32.3438C61.1295 32.3802 61.2077 32.4141 61.2806 32.4453C61.3535 32.4714 61.4212 32.4974 61.4837 32.5234C61.89 32.6953 62.2103 32.8359 62.4446 32.9453C62.679 33.0547 62.9056 33.1849 63.1243 33.3359C63.5254 33.612 63.8405 33.9271 64.0696 34.2812C64.2988 34.6354 64.4134 35.0234 64.4134 35.4453C64.4134 36.0286 64.2467 36.5339 63.9134 36.9609C63.5853 37.3828 63.1634 37.6901 62.6478 37.8828C62.3769 37.9818 62.0801 38.0521 61.7571 38.0938C61.4394 38.1406 61.067 38.1641 60.64 38.1641C60.1347 38.1641 59.6139 38.0677 59.0775 37.875C58.5462 37.6771 58.14 37.349 57.8587 36.8906C57.8639 36.5729 57.9056 36.2969 57.9837 36.0625C58.067 35.8229 58.2285 35.5495 58.4681 35.2422ZM65.2806 33.3828C65.2806 32.4401 65.4316 31.6224 65.7337 30.9297C66.0358 30.237 66.4993 29.7005 67.1243 29.3203C67.7493 28.9349 68.5332 28.7422 69.4759 28.7422C70.5176 28.7422 71.3353 28.9375 71.929 29.3281C72.5228 29.7135 72.9368 30.25 73.1712 30.9375C73.4108 31.625 73.5306 32.4661 73.5306 33.4609C73.5306 34.362 73.3717 35.1667 73.054 35.875C72.7415 36.5781 72.2676 37.1354 71.6321 37.5469C71.0019 37.9531 70.2285 38.1562 69.3118 38.1562C67.8952 38.1562 66.8691 37.7214 66.2337 36.8516C65.5983 35.9766 65.2806 34.8203 65.2806 33.3828ZM69.6321 35.8672C69.8978 35.8672 70.0592 35.8464 70.1165 35.8047C70.2363 35.5964 70.3275 35.3021 70.39 34.9219C70.4525 34.5417 70.4837 34.1302 70.4837 33.6875C70.4837 33.2812 70.4577 32.901 70.4056 32.5469C70.3535 32.1875 70.2806 31.9062 70.1868 31.7031C70.1295 31.6354 70.015 31.5859 69.8431 31.5547C69.6712 31.5182 69.4837 31.5 69.2806 31.5C69.015 31.5 68.8327 31.5286 68.7337 31.5859C68.4733 32.0339 68.3431 32.6562 68.3431 33.4531C68.3431 33.8281 68.3717 34.2109 68.429 34.6016C68.4863 34.9922 68.5592 35.3464 68.6478 35.6641C68.7103 35.7318 68.8379 35.7839 69.0306 35.8203C69.2233 35.8516 69.4238 35.8672 69.6321 35.8672ZM74.5071 31.2656C74.4186 30.8854 74.3613 30.6068 74.3353 30.4297C74.3092 30.2526 74.2962 29.9844 74.2962 29.625C74.6035 29.3333 74.9342 29.1146 75.2884 28.9688C75.6426 28.8177 76.041 28.7422 76.4837 28.7422C77.8275 28.7422 78.4993 29.4167 78.4993 30.7656C78.4993 31.125 78.4655 31.5417 78.3978 32.0156C78.3353 32.4896 78.2441 33.0859 78.1243 33.8047C78.1087 33.8984 78.067 34.151 77.9993 34.5625C77.9316 34.974 77.8847 35.3177 77.8587 35.5938C77.9472 35.6875 78.0566 35.7526 78.1868 35.7891C78.2493 35.7891 78.3926 35.6615 78.6165 35.4062C78.8457 35.1458 79.0905 34.8307 79.3509 34.4609C79.6113 34.0911 79.8248 33.75 79.9915 33.4375C80.0332 32.6927 80.0905 32.0078 80.1634 31.3828L79.3431 31.2188C79.2754 30.9583 79.2285 30.7292 79.2025 30.5312C79.1764 30.3333 79.1634 30.1224 79.1634 29.8984L79.1712 29.6797C79.3587 29.4401 79.64 29.224 80.015 29.0312C80.39 28.8385 80.8196 28.7422 81.304 28.7422C82.6478 28.7422 83.3196 29.4167 83.3196 30.7656C83.3196 31.3125 83.2285 32.0339 83.0462 32.9297C82.8639 33.8203 82.6504 34.7214 82.4056 35.6328L83.304 35.2422C83.4551 35.4036 83.5879 35.6016 83.7025 35.8359C83.8222 36.0651 83.8978 36.3307 83.929 36.6328C83.8561 36.7891 83.6972 36.9896 83.4525 37.2344C83.2077 37.474 82.9082 37.6875 82.554 37.875C82.1998 38.0625 81.8301 38.1562 81.4446 38.1562C81.0123 38.1562 80.679 38.0286 80.4446 37.7734C80.2155 37.513 80.1009 37.1823 80.1009 36.7812C80.1009 36.6771 80.1269 36.4635 80.179 36.1406C80.2363 35.8177 80.2832 35.5938 80.3196 35.4688L80.1009 35.3984C79.8405 36.3099 79.4811 36.9974 79.0228 37.4609C78.5696 37.9245 78.0514 38.1562 77.4681 38.1562C76.6295 38.1562 76.0384 37.8802 75.6946 37.3281C75.3509 36.7708 75.179 36.0807 75.179 35.2578C75.179 33.7109 75.2311 32.4193 75.3353 31.3828L74.5071 31.2656ZM85.3743 35.9062C85.3743 35.6823 85.3795 35.1328 85.39 34.2578C85.4056 32.5391 85.4134 31.599 85.4134 31.4375L84.6946 31.3203C84.5957 31.0234 84.5254 30.7448 84.4837 30.4844C84.442 30.224 84.4212 29.9609 84.4212 29.6953C84.4212 29.5859 84.4238 29.5026 84.429 29.4453C84.5176 29.3672 84.6556 29.2734 84.8431 29.1641C85.0306 29.0547 85.2519 28.9583 85.5071 28.875C85.7623 28.7865 86.0228 28.7422 86.2884 28.7422C86.9082 28.7422 87.3561 28.8802 87.6321 29.1562C87.9134 29.4323 88.054 29.8359 88.054 30.3672C88.054 30.6901 88.0123 31.1042 87.929 31.6094C87.8509 32.1094 87.7702 32.4661 87.6868 32.6797L87.9681 32.7266L88.4368 30.9609C88.6452 30.1641 88.9056 29.5964 89.2181 29.2578C89.5306 28.9141 89.8821 28.7422 90.2728 28.7422C90.528 28.7422 90.7806 28.7812 91.0306 28.8594C91.2858 28.9375 91.4811 29.0339 91.6165 29.1484C91.7623 29.4714 91.8353 29.901 91.8353 30.4375C91.8353 30.8125 91.7988 31.1849 91.7259 31.5547C91.653 31.9193 91.5592 32.2135 91.4446 32.4375L89.804 32.2188C89.4707 32.5729 89.1165 33.0651 88.7415 33.6953C88.3665 34.3203 88.067 34.8958 87.8431 35.4219L87.8353 35.8281L89.3509 35.4688C89.6061 35.8594 89.7545 36.3229 89.7962 36.8594C89.7962 36.8906 89.679 37.0182 89.4446 37.2422C89.2103 37.4661 88.9004 37.6745 88.515 37.8672C88.1347 38.0547 87.6972 38.1484 87.2025 38.1484C86.692 38.1484 86.265 38.013 85.9212 37.7422C85.5827 37.4661 85.403 37.0026 85.3821 36.3516C85.3769 36.2734 85.3743 36.125 85.3743 35.9062ZM92.3587 33.4609C92.3587 32.5599 92.5097 31.7552 92.8118 31.0469C93.1139 30.3385 93.5801 29.7786 94.2103 29.3672C94.8457 28.9505 95.6373 28.7422 96.5853 28.7422C96.9082 28.7422 97.278 28.763 97.6946 28.8047C98.1165 28.8411 98.5202 28.8984 98.9056 28.9766L99.0618 29.0859C99.2962 29.2474 99.4681 29.3776 99.5775 29.4766C99.692 29.5703 99.8118 29.7031 99.9368 29.875C99.9368 30.1562 99.8978 30.5443 99.8196 31.0391C99.7467 31.5286 99.653 31.9844 99.5384 32.4062C99.4238 32.8281 99.3144 33.099 99.2103 33.2188C99.0384 33.3073 98.7597 33.3516 98.3743 33.3516C98.1868 33.3516 98.0097 33.3385 97.8431 33.3125C97.6816 33.2812 97.5592 33.2422 97.4759 33.1953L97.3118 31.75C97.2337 31.6615 97.054 31.5911 96.7728 31.5391C96.4967 31.4818 96.2415 31.4531 96.0071 31.4531C95.9342 31.4531 95.8665 31.4583 95.804 31.4688C95.6842 31.7135 95.5931 32.026 95.5306 32.4062C95.4681 32.7865 95.4368 33.1745 95.4368 33.5703C95.4368 34.1432 95.5306 34.6302 95.7181 35.0312C95.9056 35.4271 96.2884 35.625 96.8665 35.625C97.153 35.625 97.4342 35.5781 97.7103 35.4844C97.9915 35.3906 98.3457 35.2474 98.7728 35.0547C98.9498 34.9714 99.0827 34.9115 99.1712 34.875C99.3795 35.0833 99.5436 35.3021 99.6634 35.5312C99.7832 35.7604 99.8613 36.0547 99.8978 36.4141C99.5644 36.8047 99.0957 37.1927 98.4915 37.5781C97.8926 37.9635 97.192 38.1562 96.39 38.1562C95.5358 38.1562 94.804 37.9505 94.1946 37.5391C93.5905 37.1224 93.1321 36.5599 92.8196 35.8516C92.5123 35.138 92.3587 34.3411 92.3587 33.4609ZM100.874 33.4609C100.874 32.5599 101.025 31.7552 101.327 31.0469C101.63 30.3385 102.096 29.7786 102.726 29.3672C103.361 28.9505 104.153 28.7422 105.101 28.7422C105.596 28.7422 106.09 28.8021 106.585 28.9219C107.08 29.0365 107.499 29.2292 107.843 29.5C108.161 29.7552 108.39 30.0938 108.531 30.5156C108.676 30.9323 108.749 31.3958 108.749 31.9062C108.749 32.2448 108.721 32.5911 108.663 32.9453C108.601 33.0495 108.478 33.1875 108.296 33.3594C108.114 33.526 107.9 33.6901 107.656 33.8516C107.411 34.013 107.174 34.138 106.945 34.2266C106.726 34.2422 106.499 34.25 106.265 34.25C105.853 34.25 105.437 34.2318 105.015 34.1953C104.593 34.1589 104.223 34.1172 103.906 34.0703C103.947 34.513 104.083 34.8984 104.312 35.2266C104.541 35.5547 104.906 35.7188 105.406 35.7188C105.452 35.7188 105.528 35.7135 105.632 35.7031C105.95 35.6719 106.32 35.5885 106.742 35.4531C107.169 35.3125 107.593 35.151 108.015 34.9688C108.213 35.1667 108.359 35.3646 108.452 35.5625C108.546 35.7604 108.611 36.0443 108.648 36.4141C108.486 36.6016 108.223 36.8307 107.859 37.1016C107.499 37.3724 107.059 37.6172 106.538 37.8359C106.018 38.0495 105.473 38.1562 104.906 38.1562C104.051 38.1562 103.32 37.9505 102.71 37.5391C102.106 37.1224 101.648 36.5599 101.335 35.8516C101.028 35.138 100.874 34.3411 100.874 33.4609ZM105.906 31.6641C105.833 31.5859 105.71 31.526 105.538 31.4844C105.367 31.4375 105.187 31.4141 104.999 31.4141C104.848 31.4141 104.695 31.4271 104.538 31.4531C104.387 31.4792 104.296 31.5078 104.265 31.5391C104.088 31.888 103.976 32.2839 103.929 32.7266L106.015 32.5234L105.906 31.6641Z" fill="#245D4C"/>
</svg>
